<?xml version="1.0" standalone="no"?>
<!DOCTYPE svg PUBLIC "-//W3C//DTD SVG 20010904//EN"
 "http://www.w3.org/TR/2001/REC-SVG-20010904/DTD/svg10.dtd">
<svg version="1.0" xmlns="http://www.w3.org/2000/svg"
 width="1365.000000pt" height="1365.000000pt" viewBox="0 0 1365.000000 1365.000000"
 preserveAspectRatio="xMidYMid meet">
<metadata>
Created by potrace 1.11, written by Peter Selinger 2001-2013
</metadata>
<g transform="translate(0.000000,1365.000000) scale(0.100000,-0.100000)"
fill="#000000" stroke="none">
<path d="M6089 13304 c-8 -10 -37 -14 -113 -14 -82 0 -108 -4 -139 -20 -30
-16 -56 -20 -136 -20 -79 0 -100 -3 -105 -15 -4 -12 -23 -15 -81 -15 -58 0
-77 -3 -81 -15 -4 -11 -21 -15 -59 -15 -37 0 -60 -6 -78 -20 -18 -14 -40 -20
-76 -20 -37 0 -53 -4 -57 -15 -5 -11 -21 -15 -60 -15 -39 0 -56 -4 -60 -15 -4
-10 -20 -15 -50 -15 -32 0 -49 -6 -61 -20 -12 -14 -30 -20 -59 -20 -25 0 -47
-6 -54 -15 -7 -8 -29 -15 -50 -15 -24 0 -40 -5 -44 -15 -3 -10 -19 -15 -45
-15 -30 0 -43 -5 -51 -20 -7 -14 -21 -20 -44 -20 -19 0 -39 -7 -46 -15 -7 -8
-26 -15 -42 -15 -16 0 -31 -6 -34 -15 -4 -9 -19 -15 -39 -15 -19 0 -39 -8 -50
-20 -10 -11 -30 -20 -45 -20 -16 0 -30 -7 -34 -15 -3 -8 -16 -15 -29 -15 -14
0 -30 -7 -37 -15 -7 -8 -22 -15 -35 -15 -12 0 -30 -9 -40 -20 -10 -11 -28 -20
-40 -20 -13 0 -25 -7 -29 -15 -3 -8 -17 -15 -31 -15 -14 0 -28 -7 -31 -15 -4
-8 -16 -15 -29 -15 -12 0 -30 -9 -40 -20 -10 -11 -27 -20 -37 -20 -10 0 -21
-7 -24 -15 -4 -8 -17 -15 -30 -15 -14 0 -27 -7 -30 -15 -4 -8 -17 -15 -30 -15
-13 0 -28 -9 -34 -20 -6 -11 -21 -20 -34 -20 -13 0 -26 -7 -30 -15 -3 -8 -12
-15 -19 -15 -8 0 -20 -7 -27 -15 -7 -8 -21 -15 -31 -15 -10 0 -23 -9 -29 -20
-6 -11 -20 -20 -31 -20 -11 0 -22 -7 -25 -15 -4 -8 -14 -15 -24 -15 -10 0 -20
-7 -24 -15 -3 -8 -14 -15 -26 -15 -11 0 -25 -9 -32 -20 -7 -11 -18 -20 -24
-20 -7 0 -14 -7 -18 -15 -3 -8 -15 -15 -26 -15 -12 0 -36 -16 -54 -35 -19 -19
-40 -35 -47 -35 -8 0 -29 -13 -47 -30 -18 -16 -37 -30 -42 -30 -5 0 -14 -9
-20 -20 -6 -11 -20 -20 -31 -20 -11 0 -22 -7 -25 -15 -4 -8 -10 -15 -15 -15
-5 0 -25 -16 -45 -35 -19 -19 -41 -35 -50 -35 -8 0 -17 -7 -20 -15 -4 -8 -11
-15 -16 -15 -5 0 -32 -22 -60 -50 -28 -27 -57 -50 -64 -50 -8 0 -17 -7 -20
-15 -4 -8 -10 -15 -16 -15 -5 0 -42 -33 -83 -72 -103 -103 -134 -128 -156
-128 -10 0 -19 -5 -19 -11 0 -13 -178 -189 -191 -189 -5 0 -9 -4 -9 -8 0 -13
-146 -162 -159 -162 -6 0 -11 -10 -11 -22 0 -12 -7 -28 -15 -37 -8 -9 -68 -70
-132 -136 -90 -91 -117 -125 -115 -143 2 -13 -3 -25 -13 -29 -10 -3 -42 -30
-72 -60 -41 -42 -53 -59 -48 -74 5 -15 2 -22 -14 -26 -11 -3 -23 -14 -26 -24
-4 -10 -12 -19 -18 -19 -7 0 -20 -19 -30 -42 -10 -24 -34 -57 -54 -75 -19 -17
-32 -36 -29 -42 4 -6 -2 -18 -14 -28 -11 -10 -20 -23 -20 -30 0 -7 -6 -13 -13
-13 -12 0 -38 -42 -51 -82 -3 -10 -12 -18 -21 -18 -8 0 -15 -6 -15 -14 0 -7
-7 -19 -15 -26 -8 -7 -15 -23 -15 -35 0 -14 -7 -25 -20 -28 -11 -3 -20 -14
-20 -25 0 -11 -7 -25 -15 -32 -8 -7 -15 -19 -15 -26 0 -8 -7 -14 -15 -14 -10
0 -15 -11 -15 -35 0 -25 -4 -35 -15 -35 -9 0 -18 -7 -21 -15 -4 -8 -13 -15
-21 -15 -11 0 -13 -7 -8 -31 6 -25 4 -31 -14 -36 -15 -4 -21 -13 -21 -34 0
-19 -5 -29 -15 -29 -16 0 -18 -9 -15 -47 1 -17 -4 -23 -19 -23 -16 0 -21 -6
-21 -29 0 -16 -6 -31 -15 -35 -8 -3 -15 -12 -15 -21 0 -8 -7 -15 -15 -15 -10
0 -15 -11 -15 -35 0 -19 -4 -35 -10 -35 -5 0 -16 -15 -24 -34 -8 -18 -19 -37
-25 -40 -6 -4 -11 -18 -11 -32 0 -15 -6 -24 -15 -24 -10 0 -15 -10 -15 -34 0
-18 -9 -45 -20 -59 -11 -14 -17 -32 -14 -41 3 -9 -3 -20 -15 -28 -13 -8 -21
-23 -21 -40 0 -18 -5 -28 -15 -28 -10 0 -15 -10 -15 -34 0 -21 -6 -36 -15 -40
-9 -3 -15 -18 -15 -35 0 -39 -9 -61 -26 -61 -9 0 -14 -12 -14 -34 0 -21 -6
-36 -15 -40 -10 -3 -15 -19 -15 -45 0 -27 -5 -43 -16 -49 -10 -6 -17 -24 -19
-47 -1 -23 -9 -41 -19 -47 -9 -5 -16 -22 -16 -38 0 -20 -5 -30 -15 -30 -11 0
-15 -12 -15 -49 0 -39 -4 -50 -19 -54 -16 -4 -18 -12 -13 -55 4 -41 1 -53 -17
-71 -15 -15 -21 -34 -21 -65 0 -30 -5 -46 -15 -50 -11 -4 -15 -21 -15 -61 0
-40 -4 -57 -15 -61 -11 -5 -15 -21 -15 -60 0 -42 -5 -58 -20 -71 -16 -14 -20
-30 -20 -80 0 -49 -3 -63 -15 -63 -12 0 -15 -15 -15 -79 0 -66 -3 -80 -16 -83
-14 -3 -17 -17 -15 -96 2 -83 0 -94 -16 -98 -17 -5 -19 -18 -21 -130 -2 -83
-8 -133 -17 -151 -11 -21 -15 -71 -15 -205 0 -97 -4 -179 -8 -182 -5 -3 -10
-31 -12 -63 -7 -106 -5 -427 4 -488 4 -33 11 -144 14 -246 5 -121 11 -191 19
-200 8 -9 13 -61 14 -142 2 -91 6 -127 15 -127 19 0 25 -30 23 -115 -2 -68 0
-81 14 -83 14 -3 17 -17 17 -88 0 -68 3 -84 15 -84 11 0 15 -13 15 -53 0 -40
5 -60 20 -77 15 -17 20 -37 20 -75 0 -38 4 -55 15 -59 11 -4 15 -21 15 -59 0
-36 5 -59 15 -67 9 -7 15 -29 15 -54 0 -30 6 -47 21 -59 14 -13 20 -28 18 -51
-2 -21 3 -39 14 -50 12 -12 17 -34 17 -72 0 -41 4 -54 15 -54 10 0 15 -11 15
-35 0 -23 5 -35 14 -35 15 0 29 -51 19 -75 -4 -11 1 -18 16 -22 17 -4 21 -13
21 -49 0 -30 5 -46 15 -50 8 -4 15 -18 15 -31 0 -14 7 -31 16 -37 15 -12 22
-32 23 -73 1 -13 7 -23 16 -23 10 0 15 -11 15 -35 0 -24 5 -35 15 -35 10 0 15
-11 15 -35 0 -24 5 -35 15 -35 18 0 29 -40 20 -70 -5 -16 -2 -23 14 -27 14 -4
21 -13 21 -29 0 -14 7 -27 15 -30 8 -4 15 -19 15 -35 0 -16 7 -32 17 -37 9 -5
17 -20 19 -33 1 -13 3 -27 3 -31 1 -5 8 -8 16 -8 10 0 15 -10 15 -30 0 -20 5
-30 15 -30 9 0 15 -9 15 -23 0 -13 9 -32 20 -42 13 -12 18 -25 14 -37 -6 -20
31 -68 54 -68 7 0 12 -14 12 -34 0 -26 5 -35 21 -39 16 -4 19 -11 14 -27 -5
-16 -2 -23 14 -27 15 -4 21 -13 21 -34 0 -31 26 -69 47 -69 7 0 14 -8 14 -17
1 -10 2 -23 3 -30 0 -6 16 -25 34 -41 21 -19 32 -38 32 -55 0 -17 5 -27 15
-27 8 0 15 -6 15 -13 0 -7 9 -18 21 -25 12 -8 18 -19 15 -30 -4 -12 6 -27 29
-46 22 -19 35 -38 35 -53 0 -13 7 -26 15 -29 8 -4 15 -12 15 -20 0 -8 9 -14
20 -14 15 0 20 -7 20 -29 0 -21 12 -42 39 -70 22 -23 44 -41 50 -41 6 0 11 -6
11 -14 0 -7 7 -19 15 -26 8 -7 15 -19 15 -27 0 -9 32 -46 70 -84 39 -38 70
-76 70 -85 0 -8 5 -20 10 -27 40 -47 60 -67 70 -67 5 0 10 -7 10 -15 0 -8 7
-15 15 -15 8 0 15 -4 15 -9 0 -12 47 -61 60 -61 5 0 10 -5 10 -11 0 -14 375
-389 389 -389 6 0 11 -7 11 -15 0 -8 7 -15 15 -15 8 0 15 -4 15 -9 0 -9 46
-61 55 -61 9 0 55 -52 55 -61 0 -5 11 -9 25 -9 14 0 28 -7 31 -15 4 -8 10 -15
16 -15 5 0 31 -23 57 -50 26 -28 56 -50 65 -50 10 0 32 -16 50 -35 19 -19 38
-35 44 -35 5 0 12 -7 16 -15 3 -8 15 -15 26 -15 11 0 23 -7 26 -15 4 -8 12
-15 19 -15 8 0 17 -9 20 -20 3 -11 14 -20 24 -20 10 0 24 -7 31 -15 7 -8 17
-15 22 -15 5 0 24 -16 42 -35 19 -19 42 -35 54 -35 11 0 22 -7 26 -15 3 -8 15
-15 26 -15 11 0 23 -7 26 -15 4 -8 14 -15 24 -15 10 0 22 -9 25 -20 4 -13 15
-20 31 -20 14 0 27 -7 30 -15 4 -8 14 -15 24 -15 10 0 20 -7 24 -15 3 -8 14
-15 25 -15 11 0 25 -9 31 -20 6 -11 21 -20 34 -20 13 0 26 -7 30 -15 3 -8 14
-15 24 -15 11 0 25 -7 32 -15 7 -8 18 -15 25 -15 6 0 20 -9 30 -20 10 -11 27
-20 37 -20 10 0 21 -7 24 -15 4 -8 18 -15 34 -15 16 0 30 -7 34 -15 3 -8 17
-15 30 -15 15 0 30 -8 36 -20 6 -12 21 -20 36 -20 13 0 27 -7 30 -15 4 -8 18
-15 34 -15 16 0 30 -7 34 -15 3 -8 16 -15 29 -15 13 0 32 -9 42 -20 10 -11 26
-20 35 -20 10 0 20 -7 24 -15 3 -10 19 -15 46 -15 27 0 43 -5 46 -15 4 -8 18
-15 34 -15 15 0 35 -9 45 -20 10 -11 30 -20 45 -20 15 0 33 -7 40 -15 7 -8 27
-15 45 -15 20 0 35 -6 39 -15 3 -9 18 -15 39 -15 21 0 41 -8 52 -20 11 -12 31
-20 50 -20 20 0 35 -6 39 -15 3 -9 18 -15 40 -15 21 0 36 -6 40 -15 4 -10 20
-15 50 -15 36 0 46 -4 51 -20 5 -17 15 -20 59 -20 35 0 58 -5 66 -15 7 -9 29
-15 55 -15 26 0 48 -6 55 -15 8 -9 30 -15 60 -15 34 0 52 -5 65 -20 13 -15 31
-20 67 -20 31 0 55 -6 64 -15 10 -10 35 -15 68 -15 35 0 58 -5 66 -15 8 -10
31 -15 71 -15 46 0 60 -4 68 -18 8 -15 24 -19 83 -20 52 -2 75 -6 81 -17 6
-12 29 -15 101 -15 74 0 95 -3 100 -15 4 -12 26 -15 109 -15 87 0 107 -3 120
-18 13 -15 37 -18 149 -20 91 -3 138 -8 148 -17 11 -9 70 -13 235 -14 188 -2
222 -4 232 -18 9 -11 21 -14 45 -9 18 3 38 6 43 6 6 -1 118 -3 250 -5 191 -3
243 -1 255 10 11 10 60 14 187 16 131 2 174 6 177 16 4 9 28 13 83 13 59 0 87
5 116 20 27 14 56 20 106 20 49 0 72 4 81 15 9 11 33 15 92 15 61 0 80 3 84
15 5 11 22 15 65 15 48 0 60 3 69 20 8 15 21 20 54 20 27 0 48 6 56 15 8 10
30 15 62 15 34 0 50 4 54 15 4 10 20 15 50 15 33 0 46 5 54 20 8 15 21 20 54
20 30 0 46 5 50 15 3 9 18 15 39 15 19 0 40 7 47 15 7 8 25 15 41 15 17 0 37
9 46 20 11 13 30 20 51 20 20 0 35 6 38 15 4 8 18 15 34 15 15 0 33 7 40 15 7
9 29 15 51 15 29 0 39 5 44 20 4 13 15 20 31 20 14 0 27 7 30 15 4 9 19 15 35
15 17 0 32 6 35 15 4 8 19 15 34 15 20 0 31 6 35 20 4 14 15 20 35 20 15 0 30
7 34 15 3 8 17 15 31 15 14 0 28 7 31 15 4 8 17 15 30 15 13 0 28 9 34 20 6
11 21 20 35 20 13 0 39 14 57 30 18 17 40 30 50 30 10 0 23 9 30 20 7 11 23
20 35 20 13 0 23 5 23 10 0 6 11 15 25 20 14 5 25 14 25 20 0 5 11 10 25 10
14 0 29 8 35 20 6 11 17 20 26 20 8 0 17 7 20 15 4 8 15 15 25 15 11 0 22 7
25 15 4 8 12 15 19 15 6 0 20 9 30 20 10 11 26 20 37 20 10 0 18 7 18 15 0 8
7 15 15 15 9 0 18 7 21 15 4 8 15 15 25 15 10 0 24 9 31 20 7 11 16 20 20 20
4 0 22 14 40 30 18 17 39 30 46 30 8 0 36 23 63 50 27 28 53 50 57 50 5 0 17
9 27 20 10 11 24 20 32 20 7 0 16 7 19 15 4 8 10 15 16 15 11 0 58 49 58 61 0
5 4 9 9 9 6 0 34 22 63 50 29 27 56 50 61 50 4 0 21 13 37 30 16 16 32 30 35
30 8 0 283 278 325 328 19 23 40 42 47 42 8 0 13 12 13 31 0 22 5 32 20 36 11
3 20 12 20 19 0 8 7 14 15 14 8 0 15 7 15 15 0 8 6 15 14 15 8 0 18 9 21 20 3
11 13 20 21 20 8 0 14 7 14 15 0 8 7 15 15 15 8 0 15 7 15 15 0 8 7 15 15 15
10 0 15 11 15 35 0 20 5 35 12 35 20 0 115 109 122 140 3 18 12 30 21 30 8 0
15 7 15 15 0 8 6 15 14 15 18 0 46 43 46 71 0 12 8 23 20 26 11 3 20 12 20 19
0 8 6 14 14 14 8 0 18 9 21 20 3 11 11 20 16 20 5 0 9 14 9 30 0 18 5 30 13
30 18 0 57 55 57 80 0 11 6 20 14 20 7 0 22 12 32 28 18 26 20 31 23 60 0 6 7
12 15 12 8 0 18 9 21 20 3 11 11 20 16 20 5 0 9 14 9 30 0 17 5 30 11 30 20 0
59 50 59 76 0 15 6 24 15 24 10 0 15 11 15 35 0 28 4 35 20 35 11 0 20 7 20
15 0 8 7 15 15 15 10 0 15 11 15 35 0 24 5 35 15 35 10 0 15 10 15 31 0 22 5
32 20 36 14 4 20 14 20 34 0 19 5 29 15 29 8 0 15 7 15 15 0 9 7 18 15 21 8 4
15 18 15 34 0 16 7 30 15 34 8 3 15 15 15 26 0 11 9 28 20 37 11 10 20 30 20
45 0 18 5 28 15 28 10 0 15 10 15 29 0 20 6 30 20 34 17 4 20 10 14 32 -5 21
-3 27 15 32 16 4 21 13 21 39 0 24 5 34 15 34 10 0 15 10 15 30 0 20 5 30 15
30 15 0 19 10 16 42 -1 9 7 22 18 28 16 8 21 21 21 49 0 25 5 41 15 45 9 3 15
18 15 35 0 17 7 34 16 39 10 6 17 24 19 47 1 23 9 41 19 47 9 5 16 22 16 38 0
20 5 30 15 30 11 0 15 12 15 49 0 40 4 50 19 54 16 4 19 11 14 45 -7 51 3 92
22 92 12 0 15 14 15 60 0 45 4 62 15 66 11 5 15 22 15 70 0 48 3 64 14 64 10
0 15 19 18 74 2 52 8 80 21 93 13 15 17 37 17 89 1 45 6 76 15 88 10 14 15 45
15 101 0 51 5 86 13 93 7 8 14 54 18 116 4 72 10 110 22 126 13 19 17 47 17
122 0 80 3 98 15 98 13 0 15 20 15 123 0 93 4 128 15 143 10 13 14 46 15 114
0 78 4 100 20 125 16 24 20 47 20 108 0 71 -2 79 -21 84 -16 4 -19 11 -15 29
5 20 -18 48 -161 191 l-168 168 -52 -52 c-38 -38 -50 -57 -46 -72 4 -14 -1
-23 -13 -28 -21 -8 -64 -51 -64 -64 0 -5 -7 -9 -15 -9 -8 0 -15 -7 -15 -15 0
-8 -6 -15 -14 -15 -8 0 -18 -9 -21 -20 -3 -11 -11 -20 -16 -20 -5 0 -9 -10 -9
-21 0 -21 -42 -69 -61 -69 -5 0 -9 -13 -9 -30 0 -16 -7 -33 -16 -38 -13 -7
-15 -37 -14 -204 0 -141 -3 -197 -11 -200 -8 -3 -14 -54 -17 -158 -3 -103 -9
-162 -18 -175 -7 -11 -14 -38 -14 -60 -3 -85 -12 -135 -24 -135 -10 0 -13 -26
-15 -92 -1 -69 -5 -96 -16 -104 -10 -8 -15 -30 -15 -72 0 -47 -4 -63 -17 -71
-13 -7 -18 -25 -20 -67 -2 -39 -7 -61 -18 -66 -11 -6 -15 -25 -15 -64 0 -39
-4 -56 -15 -60 -11 -4 -15 -21 -15 -55 0 -37 -4 -49 -15 -49 -16 0 -30 -42
-21 -65 3 -9 -3 -23 -14 -32 -14 -12 -20 -30 -20 -60 0 -32 -4 -43 -15 -43
-11 0 -15 -12 -15 -49 0 -41 -3 -50 -21 -54 -12 -3 -20 -13 -19 -24 4 -33 0
-43 -15 -43 -11 0 -15 -12 -15 -50 0 -38 -4 -50 -15 -50 -10 0 -15 -10 -15
-30 0 -19 -7 -33 -20 -40 -14 -8 -20 -21 -20 -46 0 -22 -6 -37 -15 -40 -9 -4
-15 -19 -15 -40 0 -24 -5 -34 -15 -34 -10 0 -15 -11 -15 -35 0 -29 -4 -35 -21
-35 -15 0 -20 -6 -19 -22 3 -39 1 -48 -15 -48 -10 0 -15 -10 -15 -29 0 -20 -6
-30 -20 -34 -16 -4 -19 -11 -14 -36 6 -27 4 -31 -15 -31 -16 0 -21 -6 -21 -28
0 -19 -10 -37 -32 -56 -25 -22 -32 -35 -30 -57 3 -24 0 -29 -17 -29 -17 0 -21
-6 -21 -30 0 -20 -5 -30 -15 -30 -9 0 -15 -9 -15 -25 0 -16 -13 -37 -35 -58
-24 -22 -35 -41 -35 -59 0 -16 -5 -28 -11 -28 -18 0 -48 -43 -49 -68 0 -15 -7
-26 -20 -29 -11 -3 -20 -11 -20 -18 0 -7 -7 -15 -15 -19 -9 -3 -15 -18 -15
-36 0 -16 -5 -30 -12 -30 -21 0 -88 -80 -88 -105 0 -14 -5 -25 -11 -25 -6 0
-28 -18 -50 -41 -27 -28 -39 -49 -39 -70 0 -22 -5 -29 -20 -29 -11 0 -20 -7
-20 -15 0 -8 -5 -15 -10 -15 -13 0 -60 -49 -60 -61 0 -5 -7 -9 -16 -9 -12 0
-14 -7 -9 -30 6 -26 4 -30 -14 -30 -12 0 -21 -5 -21 -11 0 -13 -78 -89 -91
-89 -5 0 -9 -5 -9 -10 0 -13 -376 -390 -390 -390 -5 0 -10 -4 -10 -9 0 -12
-47 -61 -60 -61 -5 0 -10 -7 -10 -15 0 -8 -4 -15 -9 -15 -5 0 -26 -16 -47 -35
-21 -19 -44 -35 -51 -35 -8 0 -16 -7 -19 -15 -4 -8 -13 -15 -21 -15 -8 0 -17
-9 -20 -20 -3 -11 -9 -20 -15 -20 -5 0 -22 -14 -38 -30 -16 -17 -36 -30 -45
-30 -8 0 -20 -9 -27 -20 -7 -11 -16 -20 -21 -20 -4 0 -21 -14 -37 -30 -16 -17
-36 -30 -44 -30 -8 0 -31 -16 -50 -35 -20 -19 -40 -35 -45 -35 -5 0 -14 -7
-21 -15 -7 -8 -21 -15 -32 -15 -11 0 -22 -9 -25 -20 -3 -11 -11 -20 -18 -20
-7 0 -18 -7 -25 -15 -7 -8 -21 -15 -32 -15 -10 0 -21 -7 -24 -15 -4 -8 -12
-15 -19 -15 -6 0 -20 -9 -30 -20 -10 -11 -24 -20 -32 -20 -7 0 -16 -7 -19 -15
-4 -8 -17 -15 -30 -15 -14 0 -27 -7 -30 -15 -4 -8 -12 -15 -19 -15 -6 0 -20
-9 -30 -20 -10 -11 -27 -20 -37 -20 -10 0 -21 -7 -24 -15 -4 -8 -17 -15 -30
-15 -14 0 -27 -7 -30 -15 -4 -8 -19 -15 -34 -15 -20 0 -31 -6 -35 -20 -3 -11
-15 -20 -25 -20 -10 0 -20 -7 -24 -15 -3 -8 -14 -15 -24 -15 -11 0 -25 -7 -32
-15 -7 -8 -23 -15 -36 -15 -13 0 -28 -9 -34 -20 -6 -12 -21 -20 -36 -20 -13 0
-27 -7 -30 -15 -4 -9 -19 -15 -35 -15 -17 0 -32 -6 -35 -15 -4 -10 -20 -15
-44 -15 -30 0 -40 -5 -45 -20 -4 -14 -15 -20 -35 -20 -15 0 -30 -7 -34 -15 -3
-9 -18 -15 -35 -15 -16 0 -31 -6 -35 -15 -3 -9 -18 -15 -36 -15 -18 0 -37 -8
-47 -20 -11 -12 -30 -20 -49 -20 -19 0 -34 -6 -38 -15 -3 -10 -19 -15 -45 -15
-25 0 -41 -5 -45 -15 -3 -9 -19 -15 -41 -15 -23 0 -41 -7 -52 -20 -12 -13 -30
-20 -54 -20 -20 0 -42 -7 -49 -15 -7 -8 -29 -15 -50 -15 -21 0 -43 -7 -50 -15
-8 -10 -31 -15 -71 -15 -48 0 -60 -4 -69 -20 -8 -15 -21 -20 -56 -20 -30 0
-46 -5 -50 -15 -5 -11 -22 -15 -64 -15 -39 0 -62 -5 -70 -15 -8 -10 -31 -15
-69 -15 -39 0 -65 -6 -86 -20 -24 -16 -47 -20 -118 -20 -69 0 -89 -3 -93 -15
-5 -12 -27 -15 -114 -15 -78 0 -111 -4 -119 -14 -11 -13 -31 -14 -386 -30 -22
-1 -50 -7 -62 -14 -15 -8 -77 -12 -199 -12 -168 0 -179 1 -200 21 -20 19 -27
20 -51 10 -20 -8 -45 -8 -88 -1 -33 5 -110 10 -171 10 -77 0 -115 4 -122 13
-7 8 -50 13 -128 15 -81 2 -124 8 -138 18 -13 9 -46 14 -88 14 -54 0 -69 4
-80 19 -11 15 -27 19 -87 20 -50 1 -80 6 -91 16 -11 10 -37 15 -72 15 -40 0
-57 4 -62 15 -4 10 -20 15 -54 15 -35 0 -56 6 -72 20 -14 13 -37 20 -62 20
-27 0 -38 4 -38 15 0 11 -12 15 -50 15 -38 0 -50 4 -50 15 0 11 -12 15 -45 15
-34 0 -47 5 -55 20 -8 15 -21 20 -54 20 -27 0 -48 6 -56 15 -7 8 -28 15 -47
15 -21 0 -36 6 -39 15 -4 9 -19 15 -36 15 -21 0 -31 6 -35 20 -4 16 -14 20
-48 20 -29 0 -45 5 -49 15 -3 9 -18 15 -36 15 -18 0 -33 6 -36 15 -4 8 -17 15
-30 15 -13 0 -28 9 -34 20 -7 14 -21 20 -44 20 -19 0 -39 7 -46 15 -7 8 -23
15 -35 15 -13 0 -25 7 -29 15 -3 8 -16 15 -29 15 -13 0 -32 9 -42 20 -10 11
-26 20 -35 20 -10 0 -23 7 -30 15 -7 8 -18 15 -25 15 -7 0 -15 7 -19 15 -3 8
-17 15 -31 15 -14 0 -30 9 -37 20 -7 11 -23 20 -36 20 -12 0 -25 7 -28 15 -4
8 -17 15 -30 15 -14 0 -27 7 -30 15 -4 8 -12 15 -19 15 -6 0 -20 9 -30 20 -10
11 -26 20 -35 20 -10 0 -20 7 -24 15 -3 8 -15 15 -26 15 -11 0 -23 7 -26 15
-4 8 -14 15 -24 15 -10 0 -22 9 -25 20 -4 12 -15 20 -30 20 -12 0 -25 7 -29
15 -3 8 -12 15 -20 15 -7 0 -16 7 -20 15 -3 8 -12 15 -19 15 -8 0 -22 9 -32
20 -10 11 -24 20 -30 20 -7 0 -15 7 -19 15 -3 8 -12 15 -20 15 -7 0 -16 7 -20
15 -3 8 -13 15 -22 15 -9 0 -31 16 -50 35 -18 19 -37 35 -42 35 -6 0 -12 7
-16 15 -3 8 -12 15 -19 15 -8 0 -22 9 -32 20 -10 11 -22 20 -27 20 -4 0 -37
29 -72 65 -35 36 -71 65 -79 65 -9 0 -145 128 -302 285 -157 157 -290 285
-295 285 -6 0 -10 12 -10 26 0 18 -19 44 -65 89 -36 36 -65 69 -65 75 0 5 -6
10 -13 10 -7 0 -21 17 -30 39 -21 48 -61 91 -83 91 -12 0 -15 6 -11 27 4 23
-2 35 -34 65 -22 21 -44 38 -48 38 -10 0 -21 24 -21 46 0 18 -31 54 -47 54 -8
0 -13 12 -13 30 0 18 -6 33 -15 36 -8 4 -15 12 -15 19 0 7 -9 15 -20 18 -14 3
-20 14 -20 31 0 15 -7 29 -15 32 -8 4 -15 12 -15 19 0 7 -10 15 -21 18 -18 5
-20 11 -15 32 6 22 3 28 -14 32 -13 3 -20 14 -20 28 0 12 -7 28 -15 35 -8 7
-15 18 -15 25 0 7 -10 15 -21 18 -18 5 -20 11 -15 32 6 22 3 28 -14 32 -14 4
-20 14 -20 34 0 19 -5 29 -15 29 -10 0 -15 10 -15 30 0 19 -7 33 -20 40 -11 6
-20 19 -20 29 0 10 -7 24 -15 31 -8 7 -15 25 -15 41 0 19 -5 29 -15 29 -9 0
-15 9 -15 23 0 13 -9 32 -20 42 -11 10 -20 29 -20 42 0 13 -7 26 -15 29 -9 4
-15 19 -15 35 0 19 -5 29 -15 29 -10 0 -15 11 -15 35 0 28 -4 35 -20 35 -16 0
-20 7 -20 34 0 18 -7 39 -15 46 -8 7 -15 27 -15 44 0 19 -8 38 -20 49 -11 9
-17 23 -14 32 4 10 -2 24 -15 36 -13 13 -21 32 -21 53 0 21 -6 36 -15 40 -10
4 -15 20 -15 51 0 33 -4 45 -15 45 -11 0 -15 12 -15 45 0 34 -5 47 -20 55 -15
8 -20 21 -20 54 0 30 -5 46 -15 50 -11 4 -15 22 -15 71 0 51 -3 65 -15 65 -16
0 -18 8 -15 52 1 17 -7 34 -19 45 -17 14 -21 29 -21 74 0 41 -4 58 -15 63 -12
4 -15 24 -15 86 0 61 -3 80 -14 80 -14 0 -32 82 -22 99 7 11 -11 63 -24 71 -5
3 -10 56 -11 118 -1 81 -5 112 -14 112 -9 0 -14 40 -17 146 -4 110 -9 148 -19
155 -12 7 -14 81 -14 434 0 276 4 428 10 433 12 8 13 22 21 197 4 82 10 133
17 137 7 4 13 44 15 102 3 76 7 96 19 98 13 2 16 20 17 91 1 72 4 91 19 101
13 10 17 28 17 75 0 46 4 63 15 67 11 5 15 22 15 70 0 50 3 64 15 64 14 0 28
34 25 61 -6 38 1 69 15 69 11 0 15 12 15 49 0 34 4 51 15 55 10 3 15 19 15 48
0 33 5 46 20 56 15 9 20 22 18 48 -1 25 3 39 15 45 12 7 17 23 17 54 0 33 4
45 15 45 10 0 15 10 15 34 0 44 9 66 26 66 10 0 14 10 12 31 -2 20 3 34 15 40
12 7 17 23 17 50 0 26 5 42 15 45 9 4 15 19 15 36 0 21 6 31 20 35 14 4 20 14
20 33 0 16 7 30 15 34 9 3 15 18 15 35 0 19 6 30 18 33 15 4 18 12 14 37 -4
26 -1 31 16 31 16 0 20 7 20 37 0 22 6 41 16 49 9 6 16 18 16 27 0 23 43 86
59 87 9 0 11 7 8 21 -4 13 1 26 14 37 10 9 19 28 19 43 0 18 6 28 19 32 14 3
17 11 14 31 -5 22 -1 28 16 33 15 4 21 13 21 34 0 19 5 29 15 29 8 0 15 7 15
15 0 9 7 18 15 21 9 4 15 19 15 35 0 22 5 29 20 29 11 0 20 7 20 15 0 9 7 18
15 21 8 4 15 18 15 34 0 20 6 29 21 33 12 3 20 13 19 24 -4 33 0 43 15 43 8 0
15 7 15 15 0 8 7 15 15 15 8 0 16 6 16 13 1 6 2 17 3 22 2 17 43 65 55 65 6 0
11 6 11 14 0 7 7 19 15 26 8 7 15 23 15 36 0 13 5 24 11 24 23 0 89 86 89 116
0 9 9 18 20 21 11 3 20 12 20 19 0 8 5 14 10 14 13 0 60 49 60 61 0 5 7 9 16
9 12 0 14 7 9 30 -6 26 -4 30 14 30 12 0 21 5 21 11 0 13 78 89 91 89 5 0 9 4
9 8 0 14 76 92 88 92 7 0 12 11 12 24 0 36 244 276 280 276 11 0 20 4 20 10 0
13 77 90 90 90 5 0 10 4 10 9 0 12 78 91 90 91 5 0 14 9 20 20 6 12 21 20 35
20 16 0 25 6 25 15 0 8 5 15 10 15 6 0 33 23 60 50 27 28 57 50 65 50 9 0 18
7 21 15 4 8 11 15 16 15 6 0 25 16 44 35 18 19 41 35 52 35 11 0 22 7 26 15 3
8 12 15 20 15 8 0 18 9 21 20 4 14 15 20 36 20 19 0 29 5 29 15 0 8 6 15 14
15 8 0 16 7 20 15 3 8 15 15 27 15 12 0 36 16 55 35 18 19 39 35 47 35 8 0 20
7 27 15 7 8 18 15 26 15 7 0 18 9 24 20 6 11 21 20 34 20 13 0 26 7 30 15 3 8
15 15 26 15 11 0 23 7 26 15 4 8 12 15 19 15 7 0 24 9 38 20 14 11 32 20 40
20 8 0 17 7 21 15 3 8 17 15 31 15 14 0 28 7 31 15 4 8 17 15 30 15 13 0 28 9
34 20 6 12 21 20 36 20 13 0 27 7 30 15 4 9 19 15 35 15 17 0 32 6 35 15 4 8
16 15 29 15 12 0 30 9 40 20 12 13 31 20 57 20 27 0 38 4 38 15 0 10 10 15 29
15 16 0 31 6 35 15 3 9 18 15 35 15 20 0 34 7 41 20 7 14 21 20 44 20 19 0 39
7 46 15 8 9 29 15 55 15 29 0 45 5 49 15 3 9 18 15 34 15 16 0 37 9 47 20 13
15 31 20 65 20 33 0 50 5 54 15 3 10 19 15 46 15 27 0 43 5 46 15 4 10 20 15
49 15 27 0 51 7 68 20 19 15 40 20 90 20 48 0 66 4 71 15 4 11 20 15 57 15 31
0 59 6 68 14 10 10 46 16 103 18 64 3 92 9 106 21 15 14 39 17 124 17 85 0
107 3 112 15 4 12 31 15 150 15 79 0 179 5 222 11 58 8 83 8 99 -1 14 -8 44
-10 81 -6 114 12 309 0 325 -20 6 -8 28 -14 49 -14 24 0 43 -7 55 -20 10 -11
28 -20 40 -20 13 0 25 -7 29 -15 3 -8 15 -15 26 -15 12 0 43 -22 70 -49 26
-26 55 -51 64 -54 9 -4 16 -18 16 -32 0 -14 7 -28 15 -31 8 -4 15 -18 15 -34
0 -20 6 -29 21 -33 20 -5 21 -11 16 -50 -6 -39 -4 -46 13 -50 19 -5 20 -15 20
-183 0 -148 -3 -180 -16 -195 -9 -10 -18 -36 -21 -58 -4 -25 -11 -41 -19 -41
-8 0 -14 -10 -14 -25 0 -14 -8 -29 -20 -35 -11 -6 -20 -17 -20 -25 0 -8 -5
-15 -10 -15 -6 0 -24 -13 -40 -30 -16 -16 -37 -30 -46 -30 -9 0 -31 -16 -50
-35 -21 -23 -42 -35 -59 -35 -14 0 -28 -7 -31 -15 -4 -10 -20 -15 -45 -15 -27
0 -45 -6 -56 -20 -14 -16 -30 -20 -83 -20 -41 -1 -72 -6 -84 -15 -15 -11 -48
-15 -122 -15 -77 0 -105 -4 -111 -14 -5 -9 -35 -15 -88 -18 -47 -3 -93 -12
-112 -21 -24 -13 -59 -17 -141 -17 -85 0 -112 -3 -122 -15 -9 -11 -35 -15
-105 -15 -73 0 -94 -3 -99 -15 -4 -11 -20 -15 -54 -15 -34 0 -57 -6 -75 -20
-17 -13 -40 -20 -70 -20 -27 0 -49 -6 -57 -15 -8 -9 -30 -15 -57 -15 -30 0
-45 -5 -49 -15 -4 -10 -20 -15 -50 -15 -33 0 -46 -5 -54 -20 -8 -15 -21 -20
-49 -20 -25 0 -41 -5 -45 -15 -3 -9 -19 -15 -41 -15 -22 0 -38 -6 -41 -15 -4
-9 -19 -15 -40 -15 -23 0 -37 -6 -44 -20 -7 -13 -21 -20 -39 -20 -16 0 -31 -7
-35 -15 -3 -8 -16 -15 -29 -15 -14 0 -30 -7 -37 -15 -7 -8 -23 -15 -36 -15
-13 0 -28 -9 -34 -20 -6 -11 -21 -20 -34 -20 -13 0 -26 -7 -30 -15 -3 -8 -17
-15 -31 -15 -14 0 -28 -7 -31 -15 -4 -8 -17 -15 -30 -15 -13 0 -28 -9 -34 -20
-7 -13 -21 -20 -40 -20 -20 0 -30 -5 -30 -15 0 -8 -6 -15 -14 -15 -8 0 -16 -7
-20 -15 -3 -8 -14 -15 -26 -15 -11 0 -25 -9 -32 -20 -7 -11 -19 -20 -26 -20
-7 0 -15 -7 -18 -15 -4 -8 -16 -15 -28 -15 -11 0 -36 -16 -53 -35 -21 -22 -42
-35 -58 -35 -16 0 -25 -6 -25 -15 0 -8 -5 -15 -11 -15 -6 0 -25 -16 -43 -35
-19 -19 -41 -35 -49 -35 -9 0 -52 -36 -96 -80 -44 -44 -84 -80 -88 -80 -5 0
-25 -16 -46 -35 -21 -19 -41 -35 -44 -35 -3 0 -83 -79 -179 -176 -130 -131
-174 -181 -174 -200 0 -13 -4 -24 -10 -24 -5 0 -43 -33 -83 -74 -63 -62 -74
-78 -70 -100 4 -21 2 -26 -16 -26 -12 0 -21 -6 -21 -15 0 -8 -6 -15 -14 -15
-8 0 -18 -9 -21 -20 -3 -11 -11 -20 -16 -20 -5 0 -9 -10 -9 -21 0 -12 -16 -36
-35 -55 -19 -18 -35 -42 -35 -54 0 -11 -7 -23 -15 -26 -8 -3 -17 -14 -20 -25
-4 -10 -13 -19 -21 -19 -9 0 -14 -11 -14 -30 0 -20 -5 -30 -15 -30 -8 0 -15
-7 -15 -15 0 -9 -7 -18 -15 -21 -9 -4 -15 -19 -15 -35 0 -16 -5 -29 -11 -29
-20 0 -59 -50 -59 -74 0 -13 -7 -26 -15 -30 -9 -3 -15 -18 -15 -36 0 -24 -4
-30 -21 -30 -18 0 -20 -4 -14 -31 6 -25 4 -31 -14 -36 -15 -4 -21 -13 -21 -34
0 -19 -5 -29 -15 -29 -10 0 -15 -11 -15 -35 0 -29 -4 -35 -21 -35 -18 0 -20
-4 -14 -31 6 -25 4 -31 -14 -36 -15 -4 -21 -13 -21 -34 0 -19 -5 -29 -15 -29
-10 0 -15 -11 -15 -35 0 -29 -4 -35 -21 -35 -18 0 -20 -4 -14 -30 8 -37 -2
-70 -21 -70 -9 0 -14 -11 -14 -35 0 -24 -5 -35 -15 -35 -11 0 -15 -12 -15 -50
0 -38 -4 -50 -15 -50 -11 0 -15 -12 -15 -45 0 -34 -5 -47 -20 -55 -15 -8 -20
-21 -20 -54 0 -30 -5 -46 -15 -50 -11 -4 -15 -21 -15 -60 0 -36 -5 -58 -14
-63 -7 -5 -16 -34 -19 -67 -4 -39 -11 -63 -21 -68 -12 -7 -16 -25 -16 -66 -1
-34 -7 -65 -15 -76 -10 -13 -15 -44 -15 -88 0 -51 -3 -68 -14 -68 -11 0 -15
-28 -18 -129 -3 -94 -8 -134 -18 -146 -23 -27 -22 -933 0 -960 11 -13 16 -49
17 -139 2 -99 5 -122 18 -124 12 -3 15 -19 15 -77 0 -52 4 -76 15 -85 10 -8
15 -31 15 -68 0 -37 5 -61 16 -74 10 -10 19 -41 22 -70 3 -30 11 -57 18 -61 9
-5 14 -28 14 -67 0 -47 3 -60 15 -60 11 0 15 -12 15 -45 0 -34 5 -47 20 -55
15 -8 20 -21 20 -51 0 -26 5 -42 15 -45 9 -4 15 -19 15 -39 0 -18 7 -38 15
-45 8 -7 15 -29 15 -50 0 -30 4 -39 21 -43 17 -5 20 -11 15 -31 -5 -19 -1 -28
14 -36 15 -8 20 -21 20 -55 0 -33 4 -45 15 -45 10 0 15 -10 15 -30 0 -19 5
-30 14 -30 17 0 27 -25 19 -46 -4 -10 1 -17 16 -21 16 -4 21 -13 21 -39 0 -24
5 -34 15 -34 9 0 15 -9 15 -25 0 -14 8 -29 21 -35 16 -9 19 -17 14 -41 -4 -17
-2 -29 4 -29 21 0 61 -48 61 -74 0 -16 6 -26 14 -26 8 0 17 -13 21 -30 4 -16
11 -30 16 -30 5 0 9 -7 9 -16 0 -9 9 -18 20 -21 14 -4 20 -14 20 -34 0 -17 6
-32 15 -35 8 -4 15 -12 15 -19 0 -7 9 -15 20 -18 12 -3 20 -14 20 -26 0 -28
28 -71 46 -71 8 0 14 -6 14 -13 0 -7 9 -18 20 -25 11 -7 20 -21 20 -32 0 -11
29 -50 65 -87 36 -37 65 -74 65 -82 1 -20 34 -61 49 -61 6 0 11 -7 11 -15 0
-8 7 -15 15 -15 8 0 15 -4 15 -9 0 -12 47 -61 60 -61 5 0 10 -4 10 -9 0 -12
179 -191 191 -191 5 0 9 -7 9 -15 0 -8 7 -15 15 -15 8 0 15 -4 15 -9 0 -9 46
-61 54 -61 3 0 22 -16 42 -35 19 -19 42 -35 50 -35 8 0 14 -5 14 -10 0 -6 7
-13 16 -17 9 -3 39 -28 66 -54 28 -27 57 -49 65 -49 8 0 29 -16 47 -35 19 -19
40 -35 49 -35 8 0 17 -7 21 -15 3 -8 15 -15 26 -15 11 0 20 -7 20 -15 0 -8 6
-15 14 -15 8 0 18 -9 21 -20 4 -14 15 -20 35 -20 15 0 30 -7 34 -15 3 -8 15
-15 26 -15 11 0 23 -7 26 -15 4 -8 14 -15 23 -15 9 0 22 -9 29 -20 7 -11 21
-20 32 -20 12 0 23 -7 26 -15 4 -8 17 -15 30 -15 14 0 27 -7 30 -15 4 -8 14
-15 23 -15 18 0 52 -23 79 -52 9 -10 29 -18 44 -18 18 0 28 -5 28 -15 0 -10
10 -15 30 -15 19 0 33 -7 40 -20 8 -14 21 -20 46 -20 22 0 37 -6 40 -15 4 -9
19 -15 35 -15 17 0 32 -6 35 -15 4 -8 18 -15 34 -15 15 0 35 -9 45 -20 10 -11
30 -20 45 -20 15 0 33 -7 40 -15 7 -8 27 -15 45 -15 20 0 35 -6 39 -15 3 -9
18 -15 39 -15 21 0 41 -8 52 -20 12 -13 31 -20 55 -20 21 0 43 -7 50 -15 7 -8
29 -15 50 -15 21 0 43 -7 50 -15 8 -9 30 -15 60 -15 34 0 52 -5 65 -20 14 -15
31 -20 70 -20 35 0 57 -5 65 -15 8 -10 31 -15 70 -15 42 0 59 -4 64 -15 4 -12
24 -15 93 -15 73 0 91 -3 104 -18 13 -16 35 -19 150 -21 95 -2 138 -6 149 -16
22 -20 668 -20 690 0 11 10 55 14 150 17 113 2 137 5 149 20 13 15 32 18 104
18 69 0 89 3 93 15 5 11 22 15 64 15 39 0 62 5 70 15 8 9 30 15 60 15 32 0 55
6 73 20 17 13 40 20 71 20 32 0 48 5 52 15 4 10 20 15 49 15 26 0 47 6 55 15
7 9 29 15 51 15 28 0 41 5 49 20 8 15 21 20 54 20 30 0 46 5 50 15 3 9 18 15
35 15 16 0 31 6 35 15 3 10 19 15 45 15 30 0 43 5 51 20 6 12 21 20 36 20 13
0 27 7 30 15 4 8 18 15 34 15 16 0 30 7 34 15 3 8 17 15 31 15 14 0 30 9 37
20 7 11 23 20 36 20 12 0 25 7 28 15 4 8 18 15 34 15 16 0 30 7 34 15 3 8 17
15 30 15 15 0 30 8 36 20 6 11 21 20 34 20 13 0 26 7 30 15 3 8 12 15 19 15 8
0 20 7 27 15 7 8 21 15 31 15 10 0 23 9 29 20 6 11 20 20 31 20 11 0 22 7 25
15 4 8 13 15 20 15 8 0 17 7 20 15 4 8 15 15 26 15 12 0 35 16 54 35 18 19 41
35 52 35 11 0 22 7 26 15 3 8 12 15 20 15 8 0 18 9 21 20 3 11 13 20 21 20 8
0 17 7 20 15 4 8 15 15 25 15 11 0 22 7 25 15 4 8 10 15 15 15 5 0 33 23 61
50 28 28 57 50 65 50 19 0 533 516 533 535 0 9 29 46 65 82 37 37 65 74 65 86
0 18 42 67 58 67 11 0 42 60 42 81 0 10 5 19 12 19 20 0 58 51 58 77 0 12 5
23 11 23 18 0 48 43 49 68 0 15 7 26 20 29 14 4 20 14 20 32 0 15 13 38 30 55
17 17 30 40 30 54 0 16 7 26 21 29 16 5 19 11 14 30 -4 19 -1 26 15 30 15 4
20 14 20 39 0 24 5 34 15 34 10 0 15 10 15 31 0 23 5 32 21 36 16 5 19 11 14
34 -6 25 -3 29 14 29 17 0 21 6 21 34 0 21 6 36 15 40 9 3 15 18 15 39 0 21 8
41 20 52 14 12 18 25 14 42 -5 19 -2 25 15 30 17 4 21 13 21 44 0 26 5 42 15
45 9 4 15 19 15 39 0 24 5 34 19 38 16 4 18 11 14 51 -5 42 -4 46 16 46 19 0
21 5 21 60 0 45 4 62 15 66 10 4 15 21 15 54 0 30 6 52 15 60 10 8 15 30 15
62 0 35 6 58 20 75 15 20 20 41 20 88 0 43 5 66 15 75 11 9 15 34 15 95 0 59
4 86 14 94 10 9 15 45 17 137 3 97 7 127 19 134 13 8 15 56 17 319 2 298 1
309 -18 314 -16 4 -19 14 -19 65 0 44 -4 61 -15 66 -11 4 -15 20 -15 55 0 34
-4 51 -15 55 -10 3 -15 19 -15 45 0 31 -4 40 -21 44 -18 5 -20 11 -14 36 6 27
4 31 -14 31 -17 0 -21 6 -21 35 0 24 -5 35 -15 35 -8 0 -15 9 -15 20 0 26 -39
80 -58 80 -8 0 -12 9 -10 23 1 13 -3 29 -10 37 -45 53 -62 70 -72 70 -5 0 -10
7 -10 15 0 8 -7 15 -15 15 -8 0 -15 4 -15 9 0 12 -47 61 -60 61 -5 0 -10 7
-10 15 0 8 -7 15 -15 15 -8 0 -19 9 -25 20 -6 11 -20 20 -31 20 -11 0 -22 7
-25 15 -4 8 -12 15 -19 15 -7 0 -15 7 -19 15 -3 8 -14 15 -24 15 -10 0 -27 9
-37 20 -10 11 -26 20 -35 20 -10 0 -20 7 -24 15 -3 9 -18 15 -35 15 -16 0 -31
6 -35 15 -3 9 -18 15 -34 15 -16 0 -37 9 -47 20 -12 13 -31 20 -55 20 -21 0
-43 7 -50 15 -9 10 -32 15 -74 15 -38 1 -68 6 -80 15 -30 22 -474 22 -482 0
-5 -11 -22 -15 -65 -15 -44 0 -61 -4 -65 -15 -4 -10 -20 -15 -50 -15 -33 0
-46 -5 -54 -20 -8 -14 -21 -20 -46 -20 -22 0 -37 -6 -40 -15 -4 -9 -19 -15
-35 -15 -17 0 -32 -6 -35 -15 -4 -8 -18 -15 -31 -15 -16 0 -38 -13 -59 -35
-18 -19 -40 -35 -49 -35 -8 0 -18 -7 -21 -15 -4 -8 -15 -15 -25 -15 -10 0 -19
-5 -19 -11 0 -11 -46 -59 -56 -59 -3 0 -22 -18 -42 -41 -71 -79 -81 -89 -92
-89 -5 0 -10 -5 -10 -11 0 -6 -13 -23 -29 -39 -15 -16 -31 -43 -34 -59 -4 -17
-12 -31 -18 -31 -17 0 -48 -43 -49 -68 0 -12 -7 -25 -15 -28 -8 -4 -15 -18
-15 -34 0 -20 -6 -29 -21 -33 -16 -4 -20 -11 -16 -26 3 -12 -3 -31 -14 -45
-11 -14 -19 -40 -19 -60 0 -25 -4 -36 -15 -36 -11 0 -15 -12 -15 -50 0 -41 -3
-50 -17 -50 -16 0 -18 -11 -19 -88 0 -61 -6 -96 -17 -117 -13 -23 -17 -56 -17
-143 0 -81 -3 -114 -13 -117 -9 -4 -13 -41 -15 -132 -3 -92 -7 -130 -18 -140
-9 -10 -14 -36 -14 -79 0 -52 -4 -67 -20 -81 -14 -12 -20 -30 -20 -59 0 -28
-5 -44 -15 -48 -10 -3 -15 -19 -15 -47 0 -33 -4 -42 -21 -46 -15 -4 -19 -11
-15 -25 6 -26 -3 -48 -20 -48 -9 0 -14 -11 -14 -30 0 -16 -5 -30 -11 -30 -7 0
-22 -12 -35 -26 -17 -18 -22 -32 -18 -50 5 -20 2 -24 -14 -24 -12 0 -23 -9
-27 -20 -3 -11 -11 -20 -16 -20 -5 0 -9 -9 -9 -20 0 -19 -274 -302 -304 -313
-9 -4 -16 -11 -16 -17 0 -5 -9 -10 -20 -10 -11 0 -25 -9 -32 -20 -7 -11 -18
-20 -24 -20 -7 0 -14 -7 -18 -15 -3 -8 -15 -15 -26 -15 -11 0 -23 -7 -26 -15
-4 -8 -12 -15 -19 -15 -6 0 -20 -9 -30 -20 -10 -11 -27 -20 -37 -20 -10 0 -21
-7 -24 -15 -4 -8 -18 -15 -34 -15 -16 0 -30 -7 -34 -15 -3 -8 -16 -15 -29 -15
-13 0 -32 -9 -42 -20 -10 -11 -30 -20 -45 -20 -15 0 -33 -7 -40 -15 -8 -9 -29
-15 -56 -15 -26 0 -46 -5 -51 -14 -4 -7 -29 -15 -55 -18 -26 -3 -54 -13 -63
-22 -13 -13 -38 -16 -120 -16 -82 0 -104 -3 -109 -15 -8 -22 -194 -22 -202 0
-4 10 -17 15 -38 13 -96 -6 -174 3 -196 22 -15 13 -37 20 -65 20 -29 0 -45 5
-49 15 -3 10 -19 15 -46 15 -27 0 -43 5 -46 15 -4 8 -18 15 -34 15 -15 0 -35
9 -45 20 -10 11 -26 20 -35 20 -10 0 -20 7 -24 15 -3 9 -18 15 -36 15 -18 0
-33 6 -36 15 -4 8 -16 15 -28 15 -12 0 -27 9 -34 20 -7 11 -20 20 -30 20 -10
0 -32 13 -50 30 -18 16 -38 30 -44 30 -6 0 -18 7 -27 15 -53 48 -62 55 -71 55
-5 0 -10 7 -10 15 0 8 -6 15 -14 15 -8 0 -18 9 -21 20 -3 11 -11 20 -16 20
-11 0 -119 111 -119 122 0 5 -7 8 -15 8 -8 0 -15 7 -15 15 0 8 -6 15 -14 15
-8 0 -17 9 -21 19 -3 10 -15 21 -26 24 -15 4 -19 11 -15 25 7 21 -31 72 -53
72 -6 0 -11 11 -11 24 0 27 -39 76 -60 76 -8 0 -11 9 -7 26 3 20 0 28 -14 31
-14 4 -19 14 -19 38 0 24 -5 34 -20 38 -17 4 -20 10 -14 32 5 21 3 27 -15 32
-18 4 -21 13 -21 54 0 37 -4 49 -15 49 -11 0 -15 12 -15 50 0 36 -4 50 -14 50
-15 0 -26 42 -26 104 0 23 -7 51 -15 62 -12 15 -14 63 -15 256 0 212 2 238 17
246 13 8 16 22 14 71 -3 71 5 101 25 101 11 0 14 15 14 60 0 45 4 62 15 66 9
4 15 19 15 40 0 23 5 34 15 34 10 0 17 14 21 41 4 22 13 43 20 46 8 3 14 14
14 24 0 21 36 78 58 92 6 4 12 19 12 32 0 15 6 25 14 25 8 0 18 9 21 20 3 11
11 20 16 20 5 0 9 9 9 20 0 13 54 74 146 165 80 80 150 145 154 145 4 0 13 7
20 15 7 8 21 15 31 15 10 0 21 9 24 20 3 11 12 20 20 20 7 0 15 7 19 15 3 8
16 15 30 15 13 0 26 7 30 15 3 8 17 15 30 15 15 0 30 8 36 20 6 11 17 20 26
20 8 0 17 7 20 15 4 8 16 15 29 15 12 0 28 7 35 15 7 8 27 15 46 15 23 0 37 6
44 20 7 13 21 20 39 20 16 0 31 7 35 15 3 10 19 15 46 15 27 0 43 5 46 15 4
10 20 15 50 15 32 0 49 6 61 20 14 16 30 20 86 20 51 0 69 4 73 15 5 12 24 15
85 15 62 0 81 3 85 15 4 11 21 15 55 15 37 0 54 5 66 20 10 11 30 20 46 20 15
0 30 7 33 15 4 8 15 15 27 15 11 0 44 24 75 55 l54 56 -1 147 c-2 112 -5 150
-16 163 -8 8 -15 28 -15 42 0 15 -4 27 -9 27 -5 0 -19 16 -32 35 -13 19 -28
35 -32 35 -5 0 -23 16 -41 35 -29 30 -39 35 -81 35 -32 0 -52 5 -59 16 -10 13
-16 14 -40 3 -22 -10 -31 -10 -48 0 -16 10 -23 10 -36 -2 -13 -11 -51 -16
-150 -19 -111 -2 -136 -6 -149 -20 -13 -15 -33 -18 -103 -18 -69 0 -89 -3 -94
-15 -4 -11 -20 -15 -54 -15 -32 0 -54 -5 -62 -15 -7 -8 -29 -15 -50 -15 -24 0
-43 -7 -55 -20 -13 -14 -31 -20 -60 -20 -29 0 -45 -5 -49 -15 -3 -8 -17 -15
-31 -15 -14 0 -28 -7 -31 -15 -4 -8 -19 -15 -34 -15 -20 0 -31 -6 -35 -20 -4
-14 -15 -20 -35 -20 -15 0 -30 -7 -34 -15 -3 -8 -16 -15 -30 -15 -13 0 -26 -7
-30 -15 -3 -8 -12 -15 -19 -15 -8 0 -22 -9 -32 -20 -10 -11 -26 -20 -37 -20
-10 0 -18 -7 -18 -15 0 -10 -10 -15 -26 -15 -19 0 -41 -15 -75 -50 -26 -27
-55 -50 -64 -50 -8 0 -18 -7 -21 -15 -4 -8 -11 -15 -16 -15 -5 0 -55 -45 -109
-100 -55 -55 -104 -100 -110 -100 -5 0 -9 -4 -9 -9 0 -5 -36 -46 -81 -90 -44
-45 -82 -91 -84 -103 -3 -12 -11 -26 -20 -30 -8 -5 -15 -16 -15 -23 0 -8 -4
-15 -10 -15 -19 0 -50 -40 -50 -66 0 -17 -6 -28 -20 -31 -11 -3 -20 -11 -20
-18 0 -7 -7 -15 -15 -19 -9 -3 -15 -18 -15 -35 0 -21 -6 -30 -21 -34 -15 -4
-19 -11 -14 -26 4 -14 0 -23 -15 -31 -11 -6 -20 -17 -20 -25 0 -8 -7 -15 -15
-15 -10 0 -15 -10 -15 -34 0 -21 -6 -36 -15 -40 -8 -3 -15 -16 -15 -30 0 -15
-7 -25 -20 -29 -18 -5 -20 -11 -14 -47 6 -36 4 -42 -15 -47 -16 -4 -21 -13
-21 -39 0 -24 -5 -34 -15 -34 -11 0 -15 -12 -15 -50 0 -43 -3 -50 -19 -50 -18
0 -19 -5 -14 -52 4 -44 2 -57 -16 -77 -17 -19 -21 -37 -21 -91 0 -48 -4 -71
-15 -80 -12 -10 -15 -38 -15 -136 0 -67 -4 -125 -9 -128 -11 -7 -10 -266 1
-266 4 0 8 -56 8 -124 0 -97 3 -128 15 -140 10 -10 15 -36 15 -85 0 -55 4 -72
17 -79 11 -7 18 -28 21 -67 3 -35 10 -59 18 -62 9 -3 14 -22 14 -54 0 -37 4
-49 15 -49 11 0 15 -12 15 -50 0 -36 4 -50 14 -50 17 0 27 -25 19 -46 -4 -10
1 -17 16 -21 16 -4 21 -13 21 -39 0 -24 5 -34 15 -34 10 0 15 -10 15 -30 0
-20 5 -30 15 -30 16 0 18 -9 15 -47 -1 -17 4 -23 19 -23 17 0 21 -6 21 -35 0
-24 5 -35 15 -35 9 0 15 -9 15 -24 0 -26 39 -76 59 -76 6 0 11 -13 11 -30 0
-16 4 -30 9 -30 5 0 13 -9 16 -20 3 -11 13 -20 21 -20 8 0 14 -7 14 -15 0 -8
6 -15 13 -15 11 0 41 -42 58 -81 14 -32 278 -289 297 -289 11 0 22 -7 26 -15
3 -8 12 -15 21 -15 8 0 15 -7 15 -15 0 -8 7 -15 15 -15 8 0 19 -9 25 -20 6
-11 20 -20 31 -20 11 0 22 -7 25 -15 4 -8 12 -15 19 -15 7 0 15 -7 19 -15 3
-8 16 -15 28 -15 13 0 29 -9 36 -20 7 -11 18 -20 26 -20 8 0 16 -7 20 -15 3
-8 15 -15 26 -15 11 0 23 -7 26 -15 4 -8 17 -15 30 -15 13 0 28 -9 34 -20 6
-11 21 -20 34 -20 13 0 26 -7 30 -15 3 -8 17 -15 31 -15 14 0 28 -7 31 -15 4
-8 19 -15 35 -15 18 0 32 -7 39 -20 7 -13 21 -20 41 -20 17 0 32 -6 35 -15 4
-10 20 -15 44 -15 24 0 40 -5 44 -15 3 -10 19 -15 43 -15 26 0 44 -6 56 -20
12 -14 29 -20 61 -20 26 0 48 -6 56 -15 8 -10 31 -15 65 -15 38 0 55 -4 59
-15 4 -12 29 -15 139 -15 107 0 137 -3 147 -15 13 -16 46 -20 53 -7 6 9 114 8
145 -2 16 -5 29 -3 41 8 14 13 41 16 128 16 86 0 113 3 123 15 9 11 33 15 91
15 64 0 79 3 79 15 0 11 11 15 43 15 31 0 49 6 62 20 12 13 31 20 57 20 25 0
41 5 44 15 4 10 20 15 45 15 26 0 42 5 45 15 4 8 19 15 35 15 18 0 32 7 39 20
8 15 21 20 51 20 26 0 42 5 45 15 4 8 18 15 34 15 16 0 30 7 34 15 3 8 15 15
26 15 12 0 37 16 57 35 20 19 45 35 55 35 10 0 21 7 24 15 4 8 17 15 30 15 13
0 28 9 34 20 6 11 17 20 24 20 8 0 16 7 20 15 3 8 15 15 26 15 12 0 36 16 54
35 19 19 41 35 51 35 10 0 47 29 82 65 35 36 66 65 69 65 3 0 40 35 82 78 184
187 232 241 226 256 -3 8 3 19 15 26 12 6 21 17 21 25 0 8 6 15 13 15 21 0 47
38 47 70 0 23 4 30 20 30 16 0 20 7 20 35 0 19 5 35 10 35 21 0 50 41 50 70 0
23 5 30 19 30 15 0 18 7 17 41 0 29 4 43 17 50 10 6 17 22 17 39 0 20 5 30 15
30 10 0 15 11 15 35 0 28 4 35 20 35 18 0 19 5 13 46 -5 40 -4 46 16 51 19 5
21 12 21 68 0 47 4 64 15 69 11 4 15 21 15 67 0 50 3 62 18 66 15 4 17 13 14
68 -5 77 4 135 21 135 7 0 12 12 13 28 0 15 1 96 2 180 2 127 4 152 17 152 12
0 15 16 15 85 0 69 3 85 15 85 14 0 20 12 16 34 -4 23 12 66 25 66 8 0 14 10
14 26 0 17 14 39 41 65 22 21 44 39 49 39 5 0 12 9 15 20 3 11 13 20 21 20 8
0 14 5 14 10 0 12 37 50 48 50 5 0 17 9 27 20 11 12 31 20 52 20 21 0 36 6 39
15 4 10 21 15 53 15 26 0 56 7 67 15 27 20 181 20 220 0 16 -8 53 -15 82 -15
37 0 54 -4 58 -15 4 -8 19 -15 35 -15 18 0 32 -7 39 -20 6 -12 21 -20 36 -20
13 0 27 -7 30 -15 4 -8 10 -15 15 -15 13 0 59 -46 59 -59 0 -6 5 -11 10 -11
18 0 59 -54 60 -77 0 -13 6 -23 14 -23 19 0 28 -27 20 -66 -5 -30 -4 -34 15
-34 19 0 21 -6 21 -65 0 -51 3 -65 15 -65 13 0 15 -33 15 -234 0 -170 -3 -235
-12 -238 -8 -3 -13 -46 -16 -129 -2 -71 -9 -130 -15 -138 -7 -7 -14 -46 -18
-86 -4 -49 -11 -79 -22 -90 -12 -11 -17 -33 -17 -69 0 -35 -5 -58 -15 -66 -10
-8 -15 -30 -15 -61 0 -38 -4 -51 -21 -59 -11 -6 -19 -19 -18 -28 4 -45 -2 -72
-16 -72 -11 0 -15 -12 -15 -45 0 -31 -5 -47 -15 -51 -9 -4 -15 -19 -15 -40 0
-22 -5 -34 -14 -34 -17 0 -26 -22 -26 -61 0 -17 -6 -32 -15 -35 -9 -4 -15 -19
-15 -40 0 -24 -5 -34 -15 -34 -10 0 -15 -10 -15 -29 0 -21 -6 -30 -21 -34 -12
-3 -20 -13 -19 -24 4 -33 0 -43 -15 -43 -10 0 -15 -10 -15 -34 0 -26 -5 -35
-21 -39 -16 -4 -19 -11 -14 -27 5 -16 2 -23 -14 -27 -12 -3 -21 -11 -21 -18 0
-7 -7 -18 -15 -25 -8 -7 -15 -23 -15 -35 0 -14 -7 -25 -20 -28 -17 -4 -20 -10
-14 -32 5 -21 3 -27 -15 -32 -11 -3 -21 -12 -21 -19 0 -8 -7 -14 -15 -14 -10
0 -15 -11 -15 -35 0 -20 -5 -35 -12 -35 -21 0 -88 -80 -88 -105 0 -14 -5 -25
-12 -25 -17 0 -88 -82 -88 -102 0 -10 -9 -23 -20 -30 -11 -7 -20 -18 -20 -25
0 -7 -5 -13 -10 -13 -13 0 -60 -49 -60 -61 0 -5 -7 -9 -15 -9 -8 0 -15 -7 -15
-15 0 -8 -7 -15 -15 -15 -8 0 -15 -4 -15 -8 0 -12 -178 -192 -190 -192 -5 0
-10 -7 -10 -15 0 -8 -6 -15 -14 -15 -8 0 -18 -9 -21 -20 -3 -11 -13 -20 -21
-20 -8 0 -14 -7 -14 -15 0 -8 -5 -15 -11 -15 -6 0 -25 -16 -43 -35 -19 -19
-38 -35 -44 -35 -5 0 -12 -7 -16 -15 -3 -8 -12 -15 -21 -15 -8 0 -38 -22 -65
-50 -27 -27 -56 -50 -64 -50 -7 0 -19 -7 -26 -15 -7 -8 -18 -15 -26 -15 -7 0
-16 -9 -19 -20 -3 -11 -12 -20 -19 -20 -8 0 -19 -7 -26 -15 -7 -8 -20 -15 -30
-15 -10 0 -20 -7 -24 -15 -3 -8 -15 -15 -27 -15 -12 0 -36 -16 -55 -35 -18
-19 -42 -35 -54 -35 -11 0 -23 -7 -26 -15 -4 -8 -12 -15 -19 -15 -6 0 -20 -9
-30 -20 -10 -11 -27 -20 -37 -20 -10 0 -21 -7 -24 -15 -4 -8 -17 -15 -30 -15
-14 0 -27 -7 -30 -15 -4 -8 -19 -15 -34 -15 -20 0 -31 -6 -35 -20 -4 -14 -15
-20 -35 -20 -15 0 -30 -7 -34 -15 -3 -9 -18 -15 -35 -15 -16 0 -31 -6 -35 -15
-3 -10 -19 -15 -47 -15 -32 0 -42 -4 -46 -20 -4 -14 -14 -20 -34 -20 -17 0
-32 -6 -35 -15 -4 -10 -20 -15 -45 -15 -26 0 -42 -5 -45 -15 -4 -10 -20 -15
-50 -15 -33 0 -47 -5 -56 -20 -9 -14 -24 -20 -51 -20 -24 0 -40 -5 -43 -15 -4
-10 -20 -15 -52 -15 -26 0 -52 -6 -62 -15 -11 -10 -40 -16 -84 -17 -54 -1 -69
-5 -77 -20 -8 -15 -22 -18 -86 -18 -54 0 -79 -4 -87 -14 -8 -11 -43 -16 -135
-18 -85 -3 -126 -8 -129 -16 -6 -18 -568 -17 -575 1 -4 10 -37 14 -128 16 -87
1 -128 6 -143 17 -12 8 -44 14 -81 14 -43 0 -68 6 -90 20 -18 12 -47 20 -73
20 -25 0 -50 6 -58 15 -9 9 -34 15 -60 15 -30 0 -46 5 -50 15 -4 10 -20 15
-48 15 -29 0 -47 6 -59 20 -11 13 -29 20 -51 20 -21 0 -36 6 -40 15 -3 9 -18
15 -39 15 -19 0 -40 7 -47 15 -7 8 -25 15 -41 15 -18 0 -32 7 -39 20 -7 13
-21 20 -39 20 -16 0 -31 7 -35 15 -3 8 -17 15 -31 15 -16 0 -25 6 -25 15 0 10
-10 15 -30 15 -19 0 -33 7 -40 20 -7 13 -21 20 -39 20 -16 0 -31 7 -35 15 -3
8 -16 15 -30 15 -13 0 -26 7 -30 15 -3 8 -16 15 -30 15 -16 0 -27 7 -31 20 -4
12 -15 20 -29 20 -13 0 -29 7 -36 15 -7 8 -18 15 -25 15 -7 0 -15 7 -19 15 -3
8 -14 15 -25 15 -11 0 -25 9 -31 20 -6 11 -17 20 -24 20 -8 0 -16 7 -20 15 -3
8 -15 15 -26 15 -12 0 -36 16 -54 35 -19 19 -40 35 -49 35 -9 0 -45 29 -81 65
-36 36 -73 65 -82 65 -9 0 -39 23 -65 50 -26 28 -53 50 -58 50 -6 0 -11 7 -11
15 0 8 -4 15 -9 15 -13 0 -131 118 -131 130 0 6 -6 10 -13 10 -14 0 -117 106
-117 121 0 5 -7 9 -15 9 -8 0 -15 7 -15 15 0 8 -7 15 -15 15 -8 0 -15 4 -15 9
0 12 -47 61 -60 61 -5 0 -10 6 -10 13 0 7 -9 18 -20 25 -11 7 -20 20 -20 30 0
20 -71 102 -88 102 -7 0 -12 11 -12 25 0 25 -67 105 -88 105 -7 0 -12 15 -12
35 0 24 -5 35 -15 35 -8 0 -15 6 -15 14 0 7 -10 16 -21 19 -18 5 -20 11 -15
32 6 22 3 28 -14 32 -14 4 -20 14 -20 33 0 16 -7 30 -15 34 -8 3 -15 12 -15
21 0 9 -9 15 -21 15 -18 0 -20 5 -16 26 3 20 0 28 -14 31 -14 4 -19 14 -19 39
0 24 -5 34 -15 34 -15 0 -19 10 -15 43 1 11 -7 21 -19 24 -15 4 -21 13 -21 34
0 19 -5 29 -15 29 -10 0 -15 11 -15 35 0 24 -5 35 -15 35 -15 0 -19 10 -15 43
1 11 -8 26 -19 34 -15 10 -21 25 -21 54 0 28 -4 39 -15 39 -11 0 -15 12 -15
49 0 41 -3 50 -21 54 -19 5 -21 10 -15 51 7 42 5 46 -13 46 -18 0 -21 6 -21
39 0 22 -7 46 -15 55 -10 10 -15 35 -15 75 0 46 -3 61 -14 61 -18 0 -25 23
-24 79 0 31 -4 47 -16 53 -13 7 -16 26 -16 92 0 57 -5 88 -15 102 -22 29 -22
808 0 850 10 19 15 59 15 118 0 65 4 94 15 106 9 10 16 43 18 87 2 44 10 79
20 94 11 15 17 43 17 80 0 38 5 61 15 69 10 8 15 30 15 61 0 40 3 49 18 49 15
0 17 9 17 61 0 47 4 63 18 70 12 7 17 23 17 53 0 30 5 46 15 50 10 4 15 20 15
50 0 35 4 45 20 49 16 4 20 14 20 51 0 34 4 46 15 46 10 0 15 10 15 34 0 21 6
36 15 40 9 3 15 19 15 41 0 24 6 39 20 47 13 9 20 24 20 45 0 23 5 33 15 33
10 0 15 10 15 30 0 20 5 30 15 30 10 0 15 11 15 35 0 28 4 35 20 35 16 0 20 7
20 35 0 24 5 35 15 35 10 0 15 10 15 29 0 20 6 30 20 34 11 3 20 12 20 21 0 9
7 16 16 16 12 0 15 6 10 26 -5 20 -3 27 14 31 15 4 20 14 20 39 0 20 5 34 13
34 21 0 57 47 57 74 0 14 4 26 9 26 20 0 63 50 57 65 -3 9 3 20 14 27 11 7 20
18 20 25 0 7 6 13 14 13 8 0 18 9 21 20 3 11 13 20 21 20 8 0 14 7 14 15 0 8
7 15 15 15 10 0 15 11 15 35 0 22 5 35 13 35 7 0 24 13 37 30 14 16 31 29 38
30 6 0 12 4 12 10 0 12 278 290 290 290 5 0 12 9 15 20 3 11 12 20 20 20 7 0
15 7 19 15 3 8 15 15 26 15 20 0 70 44 70 61 0 5 4 9 9 9 6 0 25 14 43 30 18
17 39 30 47 30 7 0 28 16 47 35 18 19 42 35 54 35 11 0 23 7 26 15 4 8 12 15
20 15 7 0 18 9 24 20 6 12 21 20 35 20 16 0 25 6 25 15 0 9 9 15 25 15 14 0
28 7 31 15 4 8 12 15 20 15 8 0 22 9 31 20 10 11 27 20 39 20 12 0 24 7 28 15
3 8 17 15 31 15 14 0 28 7 31 15 4 8 16 15 29 15 12 0 30 9 40 20 10 11 28 20
40 20 13 0 28 7 35 15 7 8 25 15 40 15 15 0 33 7 40 15 7 8 25 15 41 15 18 0
32 7 39 20 8 15 21 20 49 20 25 0 41 5 45 15 3 10 19 15 46 15 27 0 43 5 46
15 4 10 20 15 49 15 29 0 47 6 60 20 14 15 31 20 72 20 38 0 55 4 59 15 5 11
22 15 66 15 43 0 64 5 72 15 8 11 33 16 84 17 59 2 76 6 83 20 8 15 24 18 103
18 74 0 95 3 100 15 4 12 27 15 115 15 70 0 126 5 153 15 25 8 88 15 146 16
89 2 106 5 115 21 9 14 24 18 65 18 38 0 54 4 58 15 4 10 20 15 49 15 26 0 47
6 55 15 7 9 29 15 51 15 28 0 41 5 49 20 6 12 21 20 36 20 13 0 27 7 30 15 4
8 18 15 34 15 16 0 30 7 34 15 3 8 14 15 24 15 10 0 27 9 37 20 10 11 24 20
30 20 7 0 15 7 19 15 3 8 17 15 31 15 16 0 25 6 25 15 0 8 5 15 10 15 6 0 27
16 47 35 20 19 42 35 50 35 7 0 16 7 19 15 4 8 10 15 15 15 5 0 35 27 68 60
45 45 58 65 54 80 -4 16 0 23 16 27 11 3 21 12 21 19 0 8 6 14 14 14 8 0 18 9
21 20 3 11 11 20 16 20 5 0 9 13 9 29 0 21 6 30 21 34 12 3 20 13 19 24 -4 33
0 43 15 43 10 0 15 11 15 35 0 24 5 35 15 35 10 0 15 10 15 29 0 20 6 31 17
33 15 3 18 14 18 61 0 45 4 61 18 68 14 8 17 24 17 89 0 64 3 80 15 80 12 0
14 26 13 165 -2 128 -5 165 -15 165 -10 0 -13 20 -13 75 0 63 -3 77 -21 94
-17 16 -21 27 -16 56 5 28 2 37 -14 45 -14 8 -19 21 -19 51 0 26 -5 42 -15 45
-9 4 -15 19 -15 35 0 18 -5 29 -14 29 -17 0 -27 25 -19 46 4 10 -1 17 -16 21
-15 4 -21 13 -21 34 0 31 -26 69 -47 69 -7 0 -13 7 -13 15 0 8 -5 15 -11 15
-5 0 -17 16 -25 37 -17 40 -178 203 -200 203 -8 0 -17 7 -20 15 -4 8 -13 15
-20 15 -8 0 -17 7 -20 15 -4 8 -12 15 -20 15 -7 0 -18 9 -24 20 -6 11 -20 20
-31 20 -11 0 -22 7 -25 15 -4 8 -17 15 -30 15 -14 0 -27 7 -30 15 -4 8 -16 15
-29 15 -12 0 -30 9 -40 20 -10 11 -29 20 -42 20 -13 0 -26 7 -29 15 -4 10 -20
15 -44 15 -24 0 -40 5 -44 15 -4 10 -19 15 -49 15 -31 0 -49 6 -62 20 -14 15
-31 20 -72 20 -39 0 -55 4 -60 15 -5 14 -60 16 -459 15 -379 -1 -455 -4 -465
-16z"/>
</g>
</svg>
